<?xml version="1.0" standalone="no"?><!DOCTYPE svg PUBLIC "-//W3C//DTD SVG 1.1//EN" "http://www.w3.org/Graphics/SVG/1.1/DTD/svg11.dtd"><svg class="icon" width="200px" height="200.00px" viewBox="0 0 1024 1024" version="1.1" xmlns="http://www.w3.org/2000/svg"><path fill="#ffffff" d="M512 96C281.6 96 96 281.6 96 512c0 96.672 33.6 185.984 88 256H96v64h192v-192H224v72.992A342.816 342.816 0 0 1 160 512C160 316.8 316.8 160 512 160c57.6 0 112 12.416 160 38.016V128c-48-19.2-102.4-32-160-32z m224 96v192h64V311.008c40.928 57.376 64 125.984 64 200.992 0 195.2-156.8 352-352 352-57.6 0-112-12.384-160-38.016V896c48 19.2 102.4 32 160 32 230.4 0 416-185.6 416-416 0-96.672-33.6-185.984-88-256H928V192h-192z m-256 64v64.992c-53.856 8.032-96 55.04-96 111.008 0 61.568 50.432 112 112 112h32c28.032 0 48 19.968 48 48s-19.968 48-48 48H416v64h64v64h64v-64.992c53.856-8.032 96-55.04 96-111.008 0-61.568-50.432-112-112-112h-32c-28.032 0-48-19.968-48-48s19.968-48 48-48H608v-64h-64V256h-64z" /></svg>